<svg id="图层_1" data-name="图层 1" xmlns="http://www.w3.org/2000/svg" viewBox="0 0 140 30"><defs><style>.cls-1{fill:#fff;}</style></defs><path class="cls-1" d="M50.05,12.05h5V14.3H35.2v3a15.12,15.12,0,0,1-2.59,8.44H30.05a19.42,19.42,0,0,0,1.73-8.1v-5.6h4.71L34.7,9.12h4l.86,2.93H47l.89-2.93H51.8ZM45,5.87H55.4V8.18H30.8V5.87H41.44V4.25H45Z"/><path class="cls-1" d="M69.52,15v10.3H58.6V15ZM60.6,4.83H80.77V13H60.6Zm1,18.27h4.9V17.26h-4.9Zm15.7-16H64.06v3.68H77.31Zm5.46,8v10.3H71.85V15ZM74.86,23.1h4.9V17.26h-4.9Z"/><path class="cls-1" d="M100.21,18.65v7.1h-3.4v-7.1H86.92V7.17h9.89V4.25h3.4V7.17h9.94V18.65Zm-3.4-2.26v-7h-6.6v7Zm3.4,0h6.65v-7h-6.65Z"/><path class="cls-1" d="M115.41,8.4h3.45l-2.59,13h-2.53Zm18.52,14.48V25.3h-9.86a4.25,4.25,0,0,1-3.26-1.05,4.42,4.42,0,0,1-.83-3V5.78h3.54V21.43a1.58,1.58,0,0,0,.33,1.14,1.3,1.3,0,0,0,1,.31ZM129.61,4.25,131,15.84h-2.48L125.94,4.25Zm7.75,4.15L139,20.54h-2.51L133.9,8.4Z"/><path class="cls-1" d="M2.09,10.26,10,4.12a.56.56,0,0,1,.9.44v4a1.12,1.12,0,0,1-.43.88l-4.64,3.6a1.12,1.12,0,0,0-.43.88V25.16a.85.85,0,0,1-.84.84H1.84A.85.85,0,0,1,1,25.16V12.47a2.78,2.78,0,0,1,1.09-2.21"/><path class="cls-1" d="M22.21,26H19.48a.84.84,0,0,1-.84-.84V14a1.12,1.12,0,0,0-.43-.88l-4.65-3.6a1.12,1.12,0,0,1-.43-.88v-4a.56.56,0,0,1,.9-.44L22,10.26A2.8,2.8,0,0,1,23,12.47V25.16a.85.85,0,0,1-.84.84"/></svg>